<svg xmlns="http://www.w3.org/2000/svg" viewBox="0 0 64 64" role="img" aria-label="Walking pace tracker">
  <rect width="64" height="64" rx="14" fill="#1971c2" />
  <path
    fill="#f8f9fa"
    d="M37.4 13.4a5.2 5.2 0 1 1-10.4 0 5.2 5.2 0 0 1 10.4 0ZM31.6 23c2.6 0 4.8 1.7 5.5 4.2l1.4 5.3 6.4 2.9a3 3 0 0 1-2.5 5.5l-7.6-3.5a3 3 0 0 1-1.6-1.9l-.4-1.4-3.4 6.1 7.2 9.2a3.2 3.2 0 1 1-5 4l-8.5-10.8a3.2 3.2 0 0 1-.2-3.7l3.9-7-4.5 2.4-2 6.8a3 3 0 1 1-5.8-1.7l2.4-8a3 3 0 0 1 1.5-1.8l8.4-4.5a9.9 9.9 0 0 1 4.8-1.1Z"
  />
</svg>
